<?xml version="1.0" standalone="no"?>
<svg xmlns="http://www.w3.org/2000/svg" viewBox="0 0 1440 320">
    <path fill="#81e5f9" fill-opacity="1" 
        d="M0,192L24,160C48,128,96,64,144,58.7C192,53,240,107,288,144C336,181,384,203,432,224C480,245,528,267,576,282.7C624,299,672,309,720,304C768,299,816,277,864,261.3C912,245,960,235,1008,202.7C1056,171,1104,117,1152,101.3C1200,85,1248,107,1296,133.3C1344,160,1392,192,1416,208L1440,224L1440,320L1416,320C1392,320,1344,320,1296,320C1248,320,1200,320,1152,320C1104,320,1056,320,1008,320C960,320,912,320,864,320C816,320,768,320,720,320C672,320,624,320,576,320C528,320,480,320,432,320C384,320,336,320,288,320C240,320,192,320,144,320C96,320,48,320,24,320L0,320Z">
    </path>
</svg>